<svg xmlns="http://www.w3.org/2000/svg" version="1.1" viewBox="0 0 512 512"
     width="512" height="512">
  <defs>
    <linearGradient id="linearGradient3970"
       x1="0"
       y1="125"
       x2="0"
       y2="205"
       gradientUnits="userSpaceOnUse">
      <stop offset="0" stop-color="#fff" />
      <stop offset="1" stop-color="#999" stop-opacity="0" />
    </linearGradient>
    <linearGradient id="linearGradient3978"
       x1="0"
       y1="432"
       x2="0"
       y2="493"
       gradientUnits="userSpaceOnUse">
      <stop offset="0" stop-color="#fff" />
      <stop offset="1" stop-color="#ccc" stop-opacity=".9" />
    </linearGradient>
    <radialGradient id="radialGradient3978">
      <stop offset="0.5" stop-color="#ffffb8" />
      <stop offset="1" stop-color="#f8f4f4" stop-opacity="0" />
    </radialGradient>
  </defs>
  <g id="orig">
    <!--rect x="0" y="0" width="100%" height="100%" fill="#ECE4E4" /-->
    <rect x="0" y="0" width="100%" height="100%" fill="url(#radialGradient3978)" />
    <path d="M 388.80857,497.36656 293.95356,401.0153 m -181.43488,97.45799 97.38744,-98.78925 M 112.48114,296.12308 235.05049,420.3295 c 9.08495,9.15554 25.61496,9.04705 34.50806,0.0834 L 392.0438,297.12271 m 1.21792,205.45625 0,-209.11984 -284.11872,0 0,209.11984 284.11872,0 z"
       style="fill:url(#linearGradient3978);stroke:#880000;stroke-width:16;stroke-linejoin:round" />
    <path d="m 343.125,208.15625 c 0.0423,-1.06258 0.29458,-2.07921 0.71875,-3 0.42417,-0.92079 1.02727,-1.72587 1.75,-2.40625 0.72273,-0.68038 1.56196,-1.22115 2.5,-1.5625 0.93804,-0.34135 1.96115,-0.50257 3.03125,-0.40625 L 355,200.9375 c 7.42267,0.30807 12.82429,0.53125 20.0625,0.53125 2.06342,0 4.08339,-0.10763 6.09375,-0.3125 2.01036,-0.20487 3.99032,-0.50663 5.9375,-0.90625 1.94718,-0.39962 3.87612,-0.91576 5.75,-1.5 1.87388,-0.58424 3.70954,-1.24125 5.5,-2 1.79046,-0.75875 3.52183,-1.60811 5.21875,-2.53125 1.69692,-0.92314 3.34424,-1.9226 4.9375,-3 1.59326,-1.0774 3.14553,-2.21595 4.625,-3.4375 1.47947,-1.22155 2.89443,-2.51943 4.25,-3.875 1.35557,-1.35557 2.65345,-2.77053 3.875,-4.25 1.22155,-1.47947 2.3601,-3.03174 3.4375,-4.625 1.0774,-1.59326 2.07686,-3.24058 3,-4.9375 0.92314,-1.69692 1.7725,-3.42829 2.53125,-5.21875 0.75875,-1.79046 1.44701,-3.62612 2.03125,-5.5 0.58424,-1.87388 1.06913,-3.80282 1.46875,-5.75 0.39962,-1.94718 0.70138,-3.92713 0.90625,-5.9375 0.20487,-2.01037 0.3125,-4.06158 0.3125,-6.125 0,-2.0644 -0.10763,-4.08252 -0.3125,-6.09375 -0.20487,-2.01123 -0.50663,-3.98956 -0.90625,-5.9375 -0.39962,-1.94794 -0.88451,-3.87547 -1.46875,-5.75 -0.58424,-1.87453 -1.2725,-3.70899 -2.03125,-5.5 -0.75875,-1.79101 -1.60811,-3.52137 -2.53125,-5.21875 -0.92314,-1.69738 -1.9226,-3.37511 -3,-4.96875 -1.0774,-1.59364 -2.21595,-3.11397 -3.4375,-4.59375 -1.22155,-1.47978 -2.51943,-2.89418 -3.875,-4.25 -1.35557,-1.355816 -2.77053,-2.653266 -4.25,-3.875 -1.47947,-1.221734 -3.03174,-2.391211 -4.625,-3.46875 -1.59326,-1.077539 -3.24058,-2.076768 -4.9375,-3 -1.69692,-0.923232 -3.42829,-1.772439 -5.21875,-2.53125 -1.79046,-0.758811 -3.62612,-1.415722 -5.5,-2 -1.87388,-0.584278 -3.80282,-1.069119 -5.75,-1.46875 -1.94718,-0.399631 -3.92714,-0.701378 -5.9375,-0.90625 -2.01036,-0.204872 -4.03033,-0.3125 -6.09375,-0.3125 -2.17127,0 -4.32973,0.108184 -6.46875,0.34375 -2.13902,0.235566 -4.27499,0.5938 -6.375,1.0625 -2.10001,0.4687 -4.16451,1.050599 -6.21875,1.75 -2.05424,0.699401 -4.09205,1.50983 -6.09375,2.4375 -1.03183,0.477489 -2.14703,0.714906 -3.25,0.71875 -1.10297,0.0038 -2.19477,-0.225386 -3.21875,-0.6875 -1.02399,-0.469639 -1.90893,-1.13715 -2.625,-1.96875 -0.71607,-0.8316 -1.2469,-1.820779 -1.5625,-2.90625 -0.70933,-2.466674 -1.53572,-4.880139 -2.4375,-7.25 -0.90178,-2.369861 -1.88468,-4.703348 -2.96875,-6.96875 -1.08407,-2.265402 -2.27506,-4.471705 -3.53125,-6.625 -1.25619,-2.153295 -2.58185,-4.24771 -4,-6.28125 -1.41815,-2.03354 -2.93006,-4.000111 -4.5,-5.90625 -1.56994,-1.906139 -3.19469,-3.76016 -4.90625,-5.53125 -1.71156,-1.77109 -3.50073,-3.465356 -5.34375,-5.09375 -1.84302,-1.628394 -3.75443,-3.1782 -5.71875,-4.65625 -1.96432,-1.47805 -3.98705,-2.898691 -6.0625,-4.21875 -2.07545,-1.320059 -4.19859,-2.564329 -6.375,-3.71875 C 291.22984,25.033079 289.01721,23.981136 286.75,23 c -2.26721,-0.981136 -4.58966,-1.887297 -6.9375,-2.6875 -2.34784,-0.800203 -4.73794,-1.513377 -7.15625,-2.125 -2.41831,-0.611623 -4.86514,-1.115854 -7.34375,-1.53125 -2.47861,-0.415396 -4.97126,-0.725978 -7.5,-0.9375 -2.52874,-0.211522 -5.08754,-0.3125 -7.65625,-0.3125 -2.04997,0 -4.10356,0.09571 -6.125,0.3125 -2.02144,0.216788 -4.01172,0.550092 -6,0.96875 -1.98828,0.418658 -3.95574,0.925639 -5.90625,1.53125 -1.95051,0.605611 -3.87313,1.316105 -5.78125,2.09375 -3.81625,1.55529 -7.56849,3.439832 -11.1875,5.59375 -3.61901,2.153918 -7.11516,4.554298 -10.5,7.1875 -3.38484,2.633202 -6.63626,5.475608 -9.75,8.46875 -3.11374,2.993142 -6.10054,6.141262 -8.90625,9.375 -2.80571,3.233738 -5.44549,6.58251 -7.90625,9.9375 -2.46076,3.35499 -4.73362,6.736853 -6.8125,10.09375 -0.48125,0.785404 -1.09025,1.454546 -1.78125,2 -0.691,0.545454 -1.45746,0.969966 -2.28125,1.25 -0.82379,0.280034 -1.71413,0.417104 -2.59375,0.40625 -0.87962,-0.01085 -1.7665,-0.172789 -2.625,-0.5 -2.04797,-0.769869 -4.10865,-1.450904 -6.1875,-2.03125 -2.07885,-0.580346 -4.17927,-1.079891 -6.28125,-1.46875 -2.10198,-0.388859 -4.19514,-0.679589 -6.3125,-0.875 -2.11736,-0.195411 -4.25001,-0.28125 -6.375,-0.28125 -4.11916,0 -8.32487,0.234613 -12.53125,0.75 -4.20638,0.515387 -8.40969,1.294185 -12.53125,2.375 -2.06078,0.540408 -4.08643,1.152603 -6.09375,1.84375 -2.00732,0.691147 -4.00514,1.464358 -5.9375,2.3125 -1.932359,0.848142 -3.820359,1.769858 -5.65625,2.78125 -1.835891,1.011392 -3.594581,2.131603 -5.3125,3.3125 -1.717919,1.180897 -3.390307,2.424593 -4.96875,3.78125 -1.578443,1.356657 -3.082537,2.805078 -4.5,4.34375 -1.417463,1.538672 -2.733771,3.179308 -3.96875,4.90625 -1.234979,1.726942 -2.375258,3.547283 -3.40625,5.46875 -1.030992,1.92147 -1.97575,3.94025 -2.78125,6.0625 -0.8055,2.12225 -1.472746,4.35822 -2.03125,6.6875 -0.558504,2.32928 -0.991246,4.76993 -1.28125,7.3125 -0.290004,2.54257 -0.4375,5.17538 -0.4375,7.9375 0,2.36177 0.118348,4.69417 0.34375,7 0.225402,2.30583 0.559633,4.60492 1,6.84375 0.440367,2.23883 0.980104,4.433 1.625,6.59375 0.644896,2.16075 1.379761,4.27214 2.21875,6.34375 0.838989,2.07161 1.789854,4.0911 2.8125,6.0625 1.022646,1.9714 2.116633,3.88988 3.3125,5.75 1.195867,1.86012 2.485098,3.66848 3.84375,5.40625 1.358652,1.73777 2.8015,3.42689 4.3125,5.03125 1.511,1.60436 3.097087,3.13387 4.75,4.59375 1.652913,1.45988 3.371861,2.82067 5.15625,4.125 1.784389,1.30433 3.625821,2.54978 5.53125,3.6875 1.90543,1.13772 3.85897,2.19622 5.875,3.15625 2.01603,0.96003 4.10255,1.82247 6.21875,2.59375 2.1162,0.77128 4.26282,1.42853 6.46875,2 2.20593,0.57147 4.46477,1.04567 6.75,1.40625 2.28523,0.36058 4.61466,0.61137 6.96875,0.75 1.06258,0.0616 2.04054,0.33829 2.9375,0.78125 0.89696,0.44296 1.68937,1.04503 2.34375,1.78125 0.65438,0.73622 1.1964,1.62104 1.53125,2.5625 0.33485,0.94146 0.4679,1.94135 0.40625,3 48.29562,16.6091 167.58605,17.88465 203.3125,-0.65625 z"
       fill="url(#linearGradient3970)" />
    <path d="m 235.48562,261.59621 -4.97192,65.99445 63.578,-103.2421 -43.11661,-4.38088 16.39525,-64.08621 -52.17073,-2.17718 -21.01928,103.81705 z"
       fill="#ffffff" />
    <path d="m 264.70468,158.6069 -23.49836,72.5123 45.99596,-1.77063 -53.07981,90.22193 14.16704,-67.23115 h -47.76658 l 19.83346,-92.08479 44.34829,-1.64766 m 22.49825,70.75736 h 0.0765 M 264.70469,143.2082 c -0.18445,0 -0.38461,0 -0.56971,0.0151 l -44.3483,1.64767 c -7.03741,0.26163 -12.99686,5.26677 -14.47512,12.14981 l -19.83346,92.08479 c -0.98507,4.54203 0.15437,9.30057 3.07947,12.91903 2.92578,3.61911 7.3298,5.72856 11.98041,5.72856 l 0,0 h 28.78017 l -10.25556,48.66074 c -1.55543,7.37557 2.46397,14.81329 9.50073,17.5389 1.81708,0.70838 3.69563,1.04721 5.55915,1.04721 5.32826,0 10.44002,-2.7714 13.27355,-7.59143 l 52.6481,-89.49719 c 1.63197,-2.44828 2.60264,-5.38974 2.60264,-8.5464 0,-8.49997 -6.85295,-15.3987 -15.35291,-15.3987 h -0.0307 c -0.0151,0 -0.0307,0 -0.0458,0 -0.0929,0 -0.20081,0 -0.29238,0 -0.12297,0 -0.26163,0 -0.38526,0.0151 l -23.86792,0.92424 16.70755,-51.53941 c 1.55544,-4.78928 0.6626,-10.02466 -2.3711,-14.02838 -2.92576,-3.8657 -7.48349,-6.12951 -12.30352,-6.12951 l 0,0 z m 110.31637,73.65239 c -7.46844,0 -13.02694,-0.2309 -20.67985,-0.53832 l -3.8343,-0.15437 c -4.25032,-0.16941 -7.56134,-3.75713 -7.37558,-8.00678 0.16941,-4.2503 3.72637,-7.76083 8.00677,-7.37557 l 3.85001,0.15372 c 7.42267,0.30807 12.8268,0.52327 20.06501,0.52327 33.01478,0 59.88566,-26.87087 59.88566,-59.88567 0,-33.03048 -26.87088,-59.901349 -59.88566,-59.901349 -8.68507,0 -17.13925,1.894257 -25.14603,5.604938 -2.06366,0.954978 -4.41971,0.954978 -6.46768,0.03075 -2.04797,-0.939279 -3.57267,-2.710569 -4.20387,-4.88151 -11.34921,-39.46678 -47.9831,-67.030994 -89.0825,-67.030994 -32.79959,0 -62.2417,28.703647 -78.87272,55.558823 -1.925,3.141618 -5.83584,4.465506 -9.26983,3.156662 -8.19189,-3.079478 -16.66177,-4.650613 -25.16173,-4.650613 -32.9533,0 -71.450058,15.691736 -71.450058,59.885653 0,37.78838 29.519308,69.12475 67.184708,71.34278 4.2503,0.2466 7.4835,3.89579 7.2369,8.13041 -0.24594,4.23526 -4.01942,7.49985 -8.13039,7.23756 C 85.87906,213.3651 50,175.26866 50,129.34922 50,84.323303 84.90904,54.064869 136.86446,54.064869 c 8.3155,0 16.58457,1.216617 24.66853,3.634152 C 180.85888,28.903146 213.24246,4.1870118e-7 250.15304,4.1870118e-7 295.24111,4.1870118e-7 335.70866,28.457054 351.369,70.141216 c 7.65291,-2.556203 15.56811,-3.850003 23.65206,-3.850003 41.51542,0 75.28503,33.769617 75.28503,75.300047 0,41.51542 -33.76961,75.26933 -75.28503,75.26933 z"
       fill="#880000" />
  </g>
</svg>
